HIERARCHY
ROOT Hips
{
	OFFSET 0.00 0.00 0.00
	CHANNELS 6 Xposition Yposition Zposition Xrotation Yrotation Zrotation
	JOINT LeftUpLeg
	{
		OFFSET 3.78105 0.00000 0.00000
		CHANNELS 3 Xrotation Yrotation Zrotation
		JOINT LeftLeg
		{
			OFFSET 0.00000 -16.26276 0.00000
			CHANNELS 3 Xrotation Yrotation Zrotation
			JOINT LeftFoot
			{
				OFFSET 0.00000 -15.82304 0.00000
				CHANNELS 3 Xrotation Yrotation Zrotation
				JOINT LeftToeBase
				{
					OFFSET 0.00000 -1.62057 6.04805
					CHANNELS 3 Xrotation Yrotation Zrotation
					End Site
					{
						OFFSET 0.00000 0.00000 2.95275
					}
				}
			}
		}
	}
	JOINT RightUpLeg
	{
		OFFSET -3.78105 0.00000 0.00000
		CHANNELS 3 Xrotation Yrotation Zrotation
		JOINT RightLeg
		{
			OFFSET 0.00000 -16.26276 0.00000
			CHANNELS 3 Xrotation Yrotation Zrotation
			JOINT RightFoot
			{
				OFFSET 0.00000 -15.82304 0.00000
				CHANNELS 3 Xrotation Yrotation Zrotation
				JOINT RightToeBase
				{
					OFFSET 0.00000 -1.62057 6.04805
					CHANNELS 3 Xrotation Yrotation Zrotation
					End Site
					{
						OFFSET 0.00000 0.00000 2.95275
					}
				}
			}
		}
	}
	JOINT Spine
	{
		OFFSET 0.00000 0.03937 0.00000
		CHANNELS 3 Xrotation Yrotation Zrotation
		JOINT Spine1
		{
			OFFSET 0.00000 7.25908 0.00000
			CHANNELS 3 Xrotation Yrotation Zrotation
			JOINT Neck
			{
				OFFSET 0.00000 10.99958 0.00000
				CHANNELS 3 Xrotation Yrotation Zrotation
				JOINT Head
				{
					OFFSET 0.00000 6.12581 0.00000
					CHANNELS 3 Xrotation Yrotation Zrotation
					End Site
					{
						OFFSET 0.00000 4.52755 0.00000
					}
				}
			}
			JOINT LeftShoulder
			{
				OFFSET 0.00000 10.99958 0.00000
				CHANNELS 3 Xrotation Yrotation Zrotation
				JOINT LeftArm
				{
					OFFSET 7.23802 -0.00003 0.00000
					CHANNELS 3 Xrotation Yrotation Zrotation
					JOINT LeftForeArm
					{
						OFFSET 10.05612 -0.00004 0.00000
						CHANNELS 3 Xrotation Yrotation Zrotation
						JOINT LeftHand
						{
							OFFSET 9.51368 -0.00003 0.00000
							CHANNELS 3 Xrotation Yrotation Zrotation
							JOINT LeftHandThumb
							{
								OFFSET 0.00000 0.00000 0.00000
								CHANNELS 3 Xrotation Yrotation Zrotation
								End Site
								{
									OFFSET 0.00000 0.00000 3.93700
								}
							}
							JOINT L_Wrist_End
							{
								OFFSET 3.93700 -0.00001 0.00000
								CHANNELS 3 Xrotation Yrotation Zrotation
							}
						}
					}
				}
			}
			JOINT RightShoulder
			{
				OFFSET 0.00000 10.99958 0.00000
				CHANNELS 3 Xrotation Yrotation Zrotation
				JOINT RightArm
				{
					OFFSET -7.23802 -0.00003 0.00000
					CHANNELS 3 Xrotation Yrotation Zrotation
					JOINT RightForeArm
					{
						OFFSET -10.05612 -0.00004 0.00000
						CHANNELS 3 Xrotation Yrotation Zrotation
						JOINT RightHand
						{
							OFFSET -9.51368 -0.00003 0.00000
							CHANNELS 3 Xrotation Yrotation Zrotation
							JOINT RightHandThumb
							{
								OFFSET 0.00000 0.00000 0.00000
								CHANNELS 3 Xrotation Yrotation Zrotation
								End Site
								{
									OFFSET 0.00000 0.00000 3.93700
								}
							}
							JOINT R_Wrist_End
							{
								OFFSET -5.39369 -0.00002 0.00000
								CHANNELS 3 Xrotation Yrotation Zrotation
							}
						}
					}
				}
			}
		}
	}
}
MOTION
Frames: 9
Frame Time: 0.033332
 -53.3827 33.1119 -22.6043 10.9486 -5.7238 0.0897 -33.1312 13.6371 1.1145 3.2810 -0.0000 0.0000 -2.0334 17.4865 -29.2720 6.7930 -0.0000 0.0000 3.2364 -9.1760 1.7216 11.3076 -0.0000 0.0000 -20.3152 3.7630 12.0470 3.2211 0.0000 0.0000 -16.6082 4.8209 0.8920 8.0371 -4.0493 1.0549 13.4487 5.6580 -5.4815 -10.2077 -8.8981 0.9983 11.0280 6.9056 -2.9814 -1.8649 -24.0671 -75.8991 -0.0001 -19.5323 -0.0000 -29.9105 -1.2424 -0.2627 -0.0000 -0.0000 0.0000 -0.0000 -0.0000 0.0000 -7.1350 2.9462 -2.6952 -2.0186 25.1798 74.0572 -0.0001 27.3426 0.0000 -33.8639 -1.2053 -7.6050 -0.0000 -0.0000 0.0000 -0.0000 -0.0000 0.0000
 -53.3960 32.9488 -21.2907 11.2660 -6.0937 -0.3298 -33.7152 13.6779 1.2234 4.0835 -0.0000 0.0000 -2.9484 15.3773 -31.7062 6.4393 -0.0000 -0.0000 3.8870 -8.7667 1.5343 13.7348 -0.0000 0.0000 -20.1256 4.3841 13.0335 0.3155 0.0000 -0.0000 -16.6375 4.9272 1.0681 7.9633 -3.9739 1.0655 13.1021 5.9053 -5.4716 -10.2563 -8.6909 0.7740 11.1313 7.0238 -3.1489 -1.7579 -23.6494 -75.9721 -0.0001 -18.6838 -0.0000 -30.1094 -1.0079 -0.3119 -0.0000 -0.0000 0.0000 -0.0000 -0.0000 0.0000 -7.1151 3.0266 -2.7189 -2.2607 24.9652 73.6728 -0.0001 27.8800 0.0000 -33.6225 -1.0647 -7.8318 -0.0000 -0.0000 0.0000 -0.0000 -0.0000 0.0000
 -53.3516 32.8405 -19.8464 11.0911 -6.0362 -0.1698 -33.7522 12.4927 0.3386 10.2940 -0.0000 0.0000 -2.9976 18.5487 -26.3230 6.9163 0.0000 0.0000 4.5887 -8.8313 0.4558 17.0970 -0.0000 0.0000 -19.2717 5.5247 13.0613 -3.5599 0.0000 0.0000 -16.7411 5.0425 0.9053 8.4145 -3.8849 0.6904 12.8748 5.9823 -5.3924 -10.4467 -8.6357 0.7166 11.0663 6.9522 -3.1114 -1.4870 -23.6849 -75.9228 -0.0001 -18.0961 -0.0000 -29.6651 -0.5546 -0.4010 -0.0000 -0.0000 0.0000 -0.0000 -0.0000 0.0000 -6.6485 2.8921 -2.6454 -2.1535 24.4521 73.4090 -0.0001 28.1649 0.0000 -33.6461 -0.9315 -7.9138 -0.0000 0.0000 -0.0000 -0.0000 0.0000 -0.0000
 -53.2076 32.8449 -18.2843 11.0769 -6.2579 1.0804 -31.8066 9.9217 -1.6765 10.8180 -0.0000 0.0000 -0.8824 21.9046 -21.1482 5.7911 0.0000 -0.0000 4.1517 -8.7109 -2.0613 21.8311 -0.0000 0.0000 -16.7757 6.7027 14.2092 -9.7676 0.0000 -0.0000 -17.1861 5.3737 0.3352 8.8954 -3.5611 -0.1458 12.5984 6.1634 -5.4823 -10.1124 -8.7632 0.7120 10.9219 7.0821 -3.5795 -0.8458 -24.0225 -75.2532 -0.0001 -17.7446 -0.0000 -29.2308 -0.2004 -0.4708 -0.0000 -0.0000 0.0000 -0.0000 -0.0000 0.0000 -6.3172 2.7545 -2.3114 -1.1133 24.2576 73.1037 -0.0001 27.6011 0.0000 -34.0863 -0.4688 -8.0416 -0.0000 -0.0000 0.0000 -0.0000 -0.0000 0.0000
 -53.0697 32.9706 -16.7226 11.3493 -6.3178 2.2775 -30.5808 8.9449 -3.0547 12.3218 -0.0000 0.0000 0.3963 20.5764 -17.3681 8.3915 -0.0000 0.0000 1.5563 -9.4563 -4.6747 29.4062 -0.0000 0.0000 -11.5320 7.7985 14.6006 -18.4382 0.0000 0.0000 -17.4549 5.4718 -0.2932 8.6231 -3.4615 -0.9182 12.7360 6.3732 -5.7573 -9.7744 -8.7801 0.7294 10.9932 7.2672 -3.9269 -0.4873 -24.0914 -74.7658 -0.0001 -17.1755 -0.0000 -29.2990 -0.2115 -0.4798 -0.0000 -0.0000 0.0000 -0.0000 -0.0000 0.0000 -6.0266 2.7649 -2.1765 -0.1695 24.2510 73.8106 -0.0001 25.2329 0.0000 -34.3197 -0.2082 -8.0875 -0.0000 0.0000 -0.0000 -0.0000 0.0000 -0.0000
 -52.8815 33.1282 -15.2015 11.3640 -5.7635 3.2757 -29.1056 8.3472 -4.8441 14.5126 -0.0000 0.0000 -1.6040 20.8415 -14.1393 12.3788 0.0000 0.0000 -2.8776 -11.0400 -7.6596 39.3137 -0.0000 0.0000 -3.9733 8.5378 14.2762 -23.8175 0.0000 -0.0000 -17.3836 5.2443 -0.7792 8.2095 -3.7151 -1.5903 12.7465 6.5452 -6.0694 -8.9272 -8.8486 0.4644 11.0078 7.0735 -3.8356 -0.5995 -23.8069 -74.8419 -0.0001 -16.6117 -0.0000 -29.2355 0.1570 -0.6947 -0.0000 0.0000 -0.0000 -0.0000 0.0000 -0.0000 -6.0659 2.9661 -2.8788 0.7855 23.8540 75.7262 -0.0001 22.0291 0.0000 -34.0236 -1.1657 -7.7596 -0.0000 0.0000 -0.0000 -0.0000 0.0000 -0.0000
 -52.7117 33.2871 -13.7894 11.0942 -5.5362 4.3319 -26.1817 8.5200 -6.5427 14.5747 -0.0000 0.0000 -3.6866 20.6531 -13.6638 13.3844 -0.0000 0.0000 -8.2126 -9.6231 -10.1362 50.4850 -0.0000 0.0000 1.0283 5.6254 14.6798 -4.5294 -0.0000 -0.0000 -17.0503 5.0296 -1.2790 8.1005 -3.9385 -2.2315 12.8545 6.7197 -6.3177 -8.6267 -8.6466 0.0303 10.7859 6.6567 -3.6232 -0.9038 -23.6537 -74.8062 -0.0001 -16.2148 -0.0000 -29.5443 0.0173 -0.5816 -0.0000 0.0000 -0.0000 -0.0000 0.0000 -0.0000 -6.2781 3.3990 -3.5184 1.7163 23.4850 77.6834 -0.0001 18.9127 0.0000 -33.6878 -2.5777 -7.2821 -0.0000 0.0000 -0.0000 -0.0000 0.0000 -0.0000
 -52.5941 33.4267 -12.4934 10.7677 -6.1458 5.0679 -22.7095 11.2628 -7.4435 13.8987 -0.0000 0.0000 -5.7107 18.6045 -12.5047 13.8357 -0.0000 0.0000 -13.6359 -6.3317 -11.1220 60.5369 -0.0000 0.0000 4.4006 0.4489 16.3397 12.1243 0.0000 0.0000 -16.7208 4.8747 -1.5682 8.3678 -4.0906 -2.5616 12.8150 7.1626 -6.5051 -8.4422 -8.0641 -0.5390 10.3961 6.4304 -3.6195 -1.3751 -23.6624 -74.3329 -0.0001 -16.2187 -0.0000 -29.9359 -0.3318 -0.4016 -0.0000 0.0000 -0.0000 -0.0000 0.0000 -0.0000 -6.5376 3.7910 -3.6775 2.5969 24.1676 78.9326 -0.0001 16.4555 0.0000 -32.9269 -3.9411 -7.1898 -0.0000 0.0000 -0.0000 -0.0000 0.0000 -0.0000
 -52.5054 33.5660 -11.2368 10.5567 -6.1862 5.0567 -19.8003 10.4776 -8.0548 12.9559 -0.0000 0.0000 -7.2330 19.0174 -12.5730 13.6094 -0.0000 0.0000 -18.7964 -4.3333 -10.9323 67.9955 -0.0000 0.0000 1.0304 -4.3209 14.7885 12.5516 -0.0000 0.0000 -16.5736 4.2892 -1.5565 8.5075 -4.6930 -2.4665 13.1314 7.5513 -6.6737 -8.2581 -7.2324 -1.1119 9.9467 6.1735 -3.7641 -1.8002 -24.2118 -73.5242 -0.0001 -16.2879 -0.0000 -30.1252 -0.7423 -0.1285 -0.0000 0.0000 -0.0000 -0.0000 0.0000 -0.0000 -6.7205 3.6548 -3.3953 3.8186 25.4927 79.3456 -0.0001 15.0383 0.0000 -32.1238 -4.5955 -7.1002 -0.0000 0.0000 -0.0000 -0.0000 0.0000 -0.0000
